<svg width="400" height="400" viewBox="0 0 400 400" fill="none" xmlns="http://www.w3.org/2000/svg">
<path d="M115.196 309.51V326.702C114.763 327.295 113.943 328.069 112.735 329.026C111.528 329.983 109.933 330.849 107.95 331.624C105.968 332.376 103.587 332.752 100.807 332.752C98.3913 332.752 96.1924 332.319 94.21 331.453C92.2503 330.587 90.5641 329.323 89.1514 327.659C87.7386 325.996 86.6449 323.979 85.8701 321.609C85.1182 319.217 84.7422 316.505 84.7422 313.475V300.042C84.7422 297.125 85.1068 294.528 85.8359 292.249C86.5651 289.948 87.6133 288.011 88.9805 286.438C90.3477 284.843 91.9883 283.636 93.9023 282.815C95.8164 281.972 97.9469 281.551 100.294 281.551C103.347 281.551 105.934 282.098 108.053 283.191C110.172 284.285 111.824 285.88 113.009 287.977C114.216 290.073 114.946 292.625 115.196 295.633H113.385C113.111 293.104 112.485 290.916 111.505 289.07C110.548 287.225 109.158 285.8 107.335 284.798C105.535 283.772 103.188 283.26 100.294 283.26C98.152 283.26 96.2266 283.636 94.5176 284.388C92.8314 285.14 91.3958 286.245 90.2109 287.703C89.026 289.139 88.1146 290.893 87.4766 292.967C86.8613 295.018 86.5537 297.353 86.5537 299.974V313.475C86.5537 316.209 86.8727 318.659 87.5107 320.823C88.1715 322.965 89.1172 324.799 90.3477 326.326C91.5781 327.853 93.0706 329.015 94.8252 329.812C96.5798 330.61 98.5622 331.009 100.772 331.009C103.051 331.009 105.056 330.69 106.788 330.052C108.543 329.391 109.978 328.65 111.095 327.83C112.211 327.01 112.986 326.349 113.419 325.848V311.253H100.704V309.51H115.196ZM152.972 282.234L167.43 311.287L181.99 282.234H184.178L168.318 313.099V332H166.507V313.099L150.682 282.234H152.972ZM220.142 282.234H233.677C236.388 282.234 238.781 282.793 240.854 283.909C242.951 285.003 244.591 286.621 245.776 288.763C246.961 290.882 247.554 293.491 247.554 296.59C247.554 298.982 247.109 301.159 246.221 303.118C245.355 305.078 244.17 306.684 242.666 307.938C241.185 309.191 239.521 309.954 237.676 310.228L236.753 310.672H220.723L220.654 308.929H235.01C237.402 308.929 239.396 308.325 240.991 307.117C242.586 305.91 243.783 304.371 244.58 302.503C245.4 300.612 245.811 298.641 245.811 296.59C245.811 293.947 245.309 291.691 244.307 289.822C243.327 287.931 241.925 286.484 240.103 285.481C238.28 284.456 236.138 283.943 233.677 283.943H221.919V332H220.142V282.234ZM247.451 332L235.898 310.091L237.949 310.057L249.331 331.521V332H247.451ZM318.073 300.76V313.509C318.073 316.539 317.709 319.251 316.979 321.644C316.273 324.013 315.236 326.03 313.869 327.693C312.525 329.334 310.884 330.587 308.947 331.453C307.01 332.319 304.823 332.752 302.385 332.752C299.969 332.752 297.782 332.319 295.822 331.453C293.885 330.587 292.233 329.334 290.866 327.693C289.499 326.03 288.451 324.013 287.722 321.644C286.993 319.251 286.628 316.539 286.628 313.509V300.76C286.628 297.706 286.981 294.995 287.688 292.625C288.417 290.255 289.465 288.25 290.832 286.609C292.199 284.946 293.84 283.693 295.754 282.85C297.691 281.984 299.867 281.551 302.282 281.551C304.743 281.551 306.942 281.984 308.879 282.85C310.839 283.693 312.502 284.946 313.869 286.609C315.236 288.25 316.273 290.255 316.979 292.625C317.709 294.995 318.073 297.706 318.073 300.76ZM316.228 313.509V300.691C316.228 297.98 315.92 295.553 315.305 293.411C314.712 291.246 313.824 289.412 312.639 287.908C311.477 286.404 310.018 285.265 308.264 284.49C306.532 283.693 304.538 283.294 302.282 283.294C300.072 283.294 298.101 283.693 296.369 284.49C294.66 285.265 293.213 286.404 292.028 287.908C290.843 289.412 289.943 291.246 289.328 293.411C288.736 295.553 288.439 297.98 288.439 300.691V313.509C288.439 316.243 288.747 318.693 289.362 320.857C289.978 322.999 290.878 324.834 292.062 326.36C293.247 327.864 294.706 329.015 296.438 329.812C298.169 330.587 300.152 330.975 302.385 330.975C304.641 330.975 306.623 330.587 308.332 329.812C310.064 329.015 311.511 327.864 312.673 326.36C313.858 324.834 314.746 322.999 315.339 320.857C315.931 318.693 316.228 316.243 316.228 313.509Z" fill="#333333"/>
<path d="M235.167 189.167C214.662 209.671 192.078 223.932 172.289 230.529C152.246 237.209 136.353 235.691 127.577 226.915C118.802 218.14 117.283 202.246 123.964 182.204C130.56 162.415 144.822 139.83 165.326 119.326C185.83 98.8217 208.415 84.56 228.204 77.9638C248.246 71.2829 264.14 72.8016 272.915 81.5772C281.691 90.3527 283.209 106.246 276.529 126.289C269.932 146.078 255.671 168.662 235.167 189.167Z" stroke="#333333" stroke-width="8"/>
<path d="M228.309 125.811C245.128 142.631 256.801 161.133 262.19 177.3C267.663 193.72 266.319 206.452 259.386 213.386C252.452 220.319 239.72 221.663 223.3 216.19C207.133 210.801 188.631 199.128 171.811 182.309C154.992 165.489 143.319 146.987 137.93 130.82C132.457 114.4 133.801 101.667 140.734 94.7341C147.667 87.8009 160.4 86.4567 176.82 91.9302C192.987 97.3191 211.489 108.992 228.309 125.811Z" stroke="#333333" stroke-width="8"/>
<rect x="292.723" y="54.688" width="8" height="274.55" rx="4" transform="rotate(45 292.723 54.688)" fill="#333333"/>
<path d="M107.682 344.469V353H107.014V344.469H107.682ZM112.094 344.469L109.023 348.377L107.447 350.211L107.371 349.391L108.613 347.844L111.262 344.469H112.094ZM111.514 353L108.566 348.629L108.965 348.031L112.322 353H111.514ZM120.193 353.123C119.841 353.123 119.519 353.066 119.226 352.953C118.933 352.836 118.679 352.66 118.464 352.426C118.253 352.188 118.089 351.889 117.972 351.529C117.855 351.166 117.796 350.738 117.796 350.246V349.514C117.796 348.99 117.857 348.541 117.978 348.166C118.103 347.787 118.273 347.479 118.488 347.24C118.702 347.002 118.946 346.826 119.22 346.713C119.493 346.6 119.78 346.543 120.081 346.543C120.429 346.543 120.736 346.6 121.001 346.713C121.267 346.826 121.488 346.998 121.663 347.229C121.843 347.455 121.978 347.744 122.068 348.096C122.161 348.447 122.208 348.861 122.208 349.338V349.883H118.189V349.273H121.558V349.109C121.55 348.695 121.491 348.344 121.382 348.055C121.277 347.762 121.116 347.539 120.902 347.387C120.687 347.23 120.415 347.152 120.087 347.152C119.845 347.152 119.622 347.197 119.419 347.287C119.22 347.373 119.046 347.51 118.898 347.697C118.753 347.885 118.642 348.129 118.564 348.43C118.486 348.73 118.446 349.092 118.446 349.514V350.246C118.446 350.637 118.488 350.975 118.57 351.26C118.655 351.541 118.777 351.775 118.933 351.963C119.093 352.146 119.282 352.285 119.501 352.379C119.72 352.469 119.962 352.514 120.228 352.514C120.552 352.514 120.837 352.457 121.083 352.344C121.329 352.23 121.548 352.061 121.739 351.834L122.085 352.268C121.972 352.424 121.829 352.566 121.657 352.695C121.486 352.824 121.28 352.928 121.042 353.006C120.804 353.084 120.521 353.123 120.193 353.123ZM130.489 353.123C130.137 353.123 129.815 353.066 129.522 352.953C129.229 352.836 128.975 352.66 128.76 352.426C128.549 352.188 128.385 351.889 128.268 351.529C128.151 351.166 128.092 350.738 128.092 350.246V349.514C128.092 348.99 128.153 348.541 128.274 348.166C128.399 347.787 128.569 347.479 128.784 347.24C128.998 347.002 129.243 346.826 129.516 346.713C129.789 346.6 130.077 346.543 130.377 346.543C130.725 346.543 131.032 346.6 131.297 346.713C131.563 346.826 131.784 346.998 131.959 347.229C132.139 347.455 132.274 347.744 132.364 348.096C132.457 348.447 132.504 348.861 132.504 349.338V349.883H128.485V349.273H131.854V349.109C131.846 348.695 131.788 348.344 131.678 348.055C131.573 347.762 131.413 347.539 131.198 347.387C130.983 347.23 130.711 347.152 130.383 347.152C130.141 347.152 129.918 347.197 129.715 347.287C129.516 347.373 129.342 347.51 129.194 347.697C129.049 347.885 128.938 348.129 128.86 348.43C128.782 348.73 128.743 349.092 128.743 349.514V350.246C128.743 350.637 128.784 350.975 128.866 351.26C128.952 351.541 129.073 351.775 129.229 351.963C129.389 352.146 129.579 352.285 129.797 352.379C130.016 352.469 130.258 352.514 130.524 352.514C130.848 352.514 131.133 352.457 131.379 352.344C131.625 352.23 131.844 352.061 132.036 351.834L132.381 352.268C132.268 352.424 132.125 352.566 131.954 352.695C131.782 352.824 131.577 352.928 131.338 353.006C131.1 353.084 130.817 353.123 130.489 353.123ZM139.343 347.879V355.438H138.693V346.66H139.291L139.343 347.879ZM143.017 349.537V350.129C143.017 350.641 142.972 351.084 142.882 351.459C142.793 351.834 142.66 352.145 142.484 352.391C142.308 352.637 142.095 352.82 141.845 352.941C141.595 353.062 141.31 353.123 140.99 353.123C140.67 353.123 140.388 353.07 140.146 352.965C139.908 352.855 139.703 352.701 139.531 352.502C139.363 352.299 139.226 352.061 139.121 351.787C139.019 351.514 138.949 351.213 138.91 350.885V348.934C138.957 348.574 139.033 348.248 139.138 347.955C139.244 347.662 139.38 347.41 139.548 347.199C139.716 346.988 139.918 346.826 140.152 346.713C140.39 346.6 140.664 346.543 140.972 346.543C141.296 346.543 141.586 346.6 141.839 346.713C142.093 346.822 142.308 346.998 142.484 347.24C142.664 347.479 142.796 347.789 142.882 348.172C142.972 348.551 143.017 349.006 143.017 349.537ZM142.373 350.129V349.537C142.373 349.127 142.341 348.775 142.279 348.482C142.216 348.186 142.121 347.939 141.992 347.744C141.867 347.549 141.705 347.404 141.505 347.311C141.31 347.213 141.08 347.164 140.814 347.164C140.541 347.164 140.308 347.215 140.117 347.316C139.925 347.414 139.765 347.545 139.636 347.709C139.507 347.873 139.406 348.053 139.332 348.248C139.257 348.439 139.203 348.627 139.168 348.811V351.037C139.23 351.299 139.328 351.543 139.461 351.77C139.593 351.992 139.771 352.172 139.994 352.309C140.216 352.445 140.494 352.514 140.826 352.514C141.091 352.514 141.32 352.467 141.511 352.373C141.707 352.275 141.867 352.129 141.992 351.934C142.121 351.734 142.216 351.486 142.279 351.189C142.341 350.893 142.373 350.539 142.373 350.129ZM150.055 346.66V353H149.405V346.66H150.055ZM149.305 344.832C149.305 344.695 149.343 344.582 149.417 344.492C149.495 344.398 149.6 344.352 149.733 344.352C149.87 344.352 149.975 344.398 150.05 344.492C150.128 344.582 150.167 344.695 150.167 344.832C150.167 344.965 150.128 345.076 150.05 345.166C149.975 345.256 149.87 345.301 149.733 345.301C149.6 345.301 149.495 345.256 149.417 345.166C149.343 345.076 149.305 344.965 149.305 344.832ZM157.316 348.014V353H156.666V346.66H157.281L157.316 348.014ZM157.17 349.438L156.883 349.268C156.895 348.893 156.955 348.541 157.064 348.213C157.174 347.881 157.32 347.59 157.504 347.34C157.691 347.09 157.912 346.895 158.166 346.754C158.42 346.613 158.703 346.543 159.016 346.543C159.277 346.543 159.514 346.586 159.725 346.672C159.936 346.758 160.113 346.895 160.258 347.082C160.402 347.266 160.514 347.506 160.592 347.803C160.67 348.096 160.709 348.451 160.709 348.869V353H160.064V348.863C160.064 348.43 160.016 348.09 159.918 347.844C159.82 347.594 159.68 347.418 159.496 347.316C159.316 347.215 159.1 347.164 158.846 347.164C158.576 347.164 158.338 347.236 158.131 347.381C157.924 347.525 157.75 347.713 157.609 347.943C157.469 348.174 157.361 348.422 157.287 348.688C157.213 348.949 157.174 349.199 157.17 349.438ZM170.747 346.66H171.345V353.158C171.345 353.709 171.259 354.158 171.087 354.506C170.915 354.854 170.671 355.109 170.355 355.273C170.038 355.441 169.663 355.525 169.23 355.525C169.023 355.525 168.8 355.49 168.562 355.42C168.327 355.354 168.105 355.254 167.894 355.121C167.687 354.992 167.511 354.836 167.366 354.652L167.671 354.184C167.89 354.43 168.126 354.613 168.38 354.734C168.634 354.859 168.902 354.922 169.183 354.922C169.507 354.922 169.782 354.863 170.009 354.746C170.236 354.633 170.407 354.449 170.525 354.195C170.642 353.941 170.7 353.604 170.7 353.182V348.055L170.747 346.66ZM167.021 350.129V349.537C167.021 349.006 167.068 348.551 167.161 348.172C167.255 347.789 167.392 347.479 167.571 347.24C167.755 346.998 167.974 346.822 168.228 346.713C168.482 346.6 168.769 346.543 169.089 346.543C169.398 346.543 169.667 346.6 169.898 346.713C170.132 346.826 170.331 346.988 170.495 347.199C170.659 347.41 170.792 347.662 170.894 347.955C170.995 348.248 171.07 348.574 171.116 348.934V350.832C171.077 351.164 171.007 351.471 170.905 351.752C170.808 352.033 170.675 352.275 170.507 352.479C170.343 352.682 170.142 352.84 169.904 352.953C169.669 353.066 169.394 353.123 169.077 353.123C168.761 353.123 168.476 353.062 168.222 352.941C167.968 352.82 167.751 352.637 167.571 352.391C167.392 352.145 167.255 351.834 167.161 351.459C167.068 351.084 167.021 350.641 167.021 350.129ZM167.677 349.537V350.129C167.677 350.539 167.706 350.893 167.765 351.189C167.827 351.486 167.921 351.732 168.046 351.928C168.171 352.119 168.329 352.262 168.521 352.355C168.716 352.449 168.946 352.496 169.212 352.496C169.54 352.496 169.816 352.428 170.038 352.291C170.261 352.15 170.437 351.967 170.566 351.74C170.698 351.51 170.798 351.26 170.864 350.99V348.816C170.825 348.629 170.769 348.439 170.695 348.248C170.62 348.057 170.519 347.879 170.39 347.715C170.265 347.547 170.107 347.414 169.915 347.316C169.724 347.215 169.491 347.164 169.218 347.164C168.952 347.164 168.722 347.213 168.527 347.311C168.331 347.404 168.171 347.549 168.046 347.744C167.921 347.936 167.827 348.18 167.765 348.477C167.706 348.773 167.677 349.127 167.677 349.537ZM187.736 344.469V353H187.074V344.469H187.736ZM190.168 344.469V345.096H184.654V344.469H190.168ZM196.86 344V353H196.21V344H196.86ZM196.714 349.438L196.427 349.268C196.438 348.893 196.499 348.541 196.608 348.213C196.718 347.881 196.864 347.59 197.048 347.34C197.235 347.09 197.456 346.895 197.71 346.754C197.964 346.613 198.247 346.543 198.559 346.543C198.821 346.543 199.057 346.586 199.268 346.672C199.479 346.758 199.657 346.895 199.802 347.082C199.946 347.266 200.057 347.506 200.136 347.803C200.214 348.096 200.253 348.451 200.253 348.869V353H199.608V348.863C199.608 348.43 199.559 348.09 199.462 347.844C199.364 347.594 199.223 347.418 199.04 347.316C198.86 347.215 198.643 347.164 198.389 347.164C198.12 347.164 197.882 347.236 197.675 347.381C197.468 347.525 197.294 347.713 197.153 347.943C197.013 348.174 196.905 348.422 196.831 348.688C196.757 348.949 196.718 349.199 196.714 349.438ZM208.873 353.123C208.521 353.123 208.199 353.066 207.906 352.953C207.613 352.836 207.359 352.66 207.145 352.426C206.934 352.188 206.77 351.889 206.652 351.529C206.535 351.166 206.477 350.738 206.477 350.246V349.514C206.477 348.99 206.537 348.541 206.658 348.166C206.783 347.787 206.953 347.479 207.168 347.24C207.383 347.002 207.627 346.826 207.9 346.713C208.174 346.6 208.461 346.543 208.762 346.543C209.109 346.543 209.416 346.6 209.682 346.713C209.947 346.826 210.168 346.998 210.344 347.229C210.523 347.455 210.658 347.744 210.748 348.096C210.842 348.447 210.889 348.861 210.889 349.338V349.883H206.869V349.273H210.238V349.109C210.23 348.695 210.172 348.344 210.062 348.055C209.957 347.762 209.797 347.539 209.582 347.387C209.367 347.23 209.096 347.152 208.768 347.152C208.525 347.152 208.303 347.197 208.1 347.287C207.9 347.373 207.727 347.51 207.578 347.697C207.434 347.885 207.322 348.129 207.244 348.43C207.166 348.73 207.127 349.092 207.127 349.514V350.246C207.127 350.637 207.168 350.975 207.25 351.26C207.336 351.541 207.457 351.775 207.613 351.963C207.773 352.146 207.963 352.285 208.182 352.379C208.4 352.469 208.643 352.514 208.908 352.514C209.232 352.514 209.518 352.457 209.764 352.344C210.01 352.23 210.229 352.061 210.42 351.834L210.766 352.268C210.652 352.424 210.51 352.566 210.338 352.695C210.166 352.824 209.961 352.928 209.723 353.006C209.484 353.084 209.201 353.123 208.873 353.123ZM227.209 348.898H225.223L225.211 348.283H226.928C227.272 348.283 227.563 348.223 227.801 348.102C228.043 347.98 228.227 347.801 228.352 347.562C228.481 347.324 228.545 347.029 228.545 346.678C228.545 346.326 228.483 346.033 228.358 345.799C228.237 345.561 228.051 345.385 227.801 345.271C227.555 345.154 227.245 345.096 226.87 345.096H225.387V353H224.719V344.469H226.87C227.233 344.469 227.559 344.512 227.848 344.598C228.141 344.684 228.389 344.818 228.592 345.002C228.795 345.182 228.95 345.414 229.055 345.699C229.164 345.98 229.219 346.314 229.219 346.701C229.219 347.049 229.151 347.365 229.014 347.65C228.877 347.932 228.686 348.162 228.44 348.342C228.198 348.521 227.909 348.633 227.573 348.676L227.209 348.898ZM227.157 353H224.995L225.352 352.373H227.163C227.502 352.373 227.793 352.303 228.036 352.162C228.278 352.018 228.463 351.812 228.592 351.547C228.725 351.281 228.791 350.967 228.791 350.604C228.791 350.283 228.735 349.994 228.621 349.736C228.508 349.479 228.332 349.275 228.094 349.127C227.86 348.975 227.563 348.898 227.204 348.898H225.926L225.938 348.283H227.725L227.854 348.506C228.182 348.545 228.465 348.662 228.704 348.857C228.946 349.053 229.133 349.301 229.266 349.602C229.399 349.902 229.465 350.232 229.465 350.592C229.465 351.115 229.368 351.557 229.172 351.916C228.977 352.271 228.705 352.541 228.358 352.725C228.014 352.908 227.614 353 227.157 353ZM239.035 351.863V348.412C239.035 348.115 238.984 347.875 238.882 347.691C238.781 347.504 238.632 347.367 238.437 347.281C238.242 347.195 238 347.152 237.711 347.152C237.441 347.152 237.203 347.207 236.996 347.316C236.789 347.422 236.627 347.57 236.509 347.762C236.392 347.949 236.334 348.166 236.334 348.412L235.683 348.406C235.683 348.164 235.732 347.93 235.83 347.703C235.931 347.477 236.072 347.277 236.252 347.105C236.431 346.93 236.646 346.793 236.896 346.695C237.15 346.594 237.431 346.543 237.74 346.543C238.115 346.543 238.449 346.604 238.742 346.725C239.035 346.846 239.263 347.045 239.427 347.322C239.595 347.6 239.679 347.967 239.679 348.424V351.67C239.679 351.889 239.693 352.115 239.72 352.35C239.752 352.584 239.795 352.777 239.849 352.93V353H239.164C239.121 352.859 239.088 352.684 239.064 352.473C239.045 352.262 239.035 352.059 239.035 351.863ZM239.175 349.303L239.187 349.854H238.062C237.754 349.854 237.484 349.887 237.254 349.953C237.023 350.02 236.83 350.115 236.673 350.24C236.521 350.365 236.406 350.516 236.328 350.691C236.25 350.863 236.211 351.057 236.211 351.271C236.211 351.553 236.255 351.783 236.345 351.963C236.439 352.143 236.572 352.275 236.744 352.361C236.916 352.443 237.125 352.484 237.371 352.484C237.687 352.484 237.968 352.42 238.214 352.291C238.461 352.162 238.662 351.992 238.818 351.781C238.974 351.57 239.076 351.346 239.123 351.107L239.298 351.5C239.259 351.68 239.187 351.863 239.082 352.051C238.976 352.238 238.839 352.414 238.671 352.578C238.504 352.738 238.304 352.869 238.074 352.971C237.843 353.072 237.582 353.123 237.289 353.123C236.945 353.123 236.642 353.057 236.38 352.924C236.119 352.791 235.916 352.592 235.771 352.326C235.63 352.057 235.56 351.725 235.56 351.33C235.56 351.037 235.611 350.768 235.713 350.521C235.814 350.275 235.964 350.061 236.164 349.877C236.363 349.693 236.613 349.553 236.914 349.455C237.214 349.354 237.564 349.303 237.963 349.303H239.175ZM246.981 344V353H246.331V344H246.981ZM256.814 351.863V348.412C256.814 348.115 256.764 347.875 256.662 347.691C256.561 347.504 256.412 347.367 256.217 347.281C256.021 347.195 255.779 347.152 255.49 347.152C255.221 347.152 254.982 347.207 254.775 347.316C254.568 347.422 254.406 347.57 254.289 347.762C254.172 347.949 254.113 348.166 254.113 348.412L253.463 348.406C253.463 348.164 253.512 347.93 253.609 347.703C253.711 347.477 253.852 347.277 254.031 347.105C254.211 346.93 254.426 346.793 254.676 346.695C254.93 346.594 255.211 346.543 255.52 346.543C255.895 346.543 256.229 346.604 256.521 346.725C256.814 346.846 257.043 347.045 257.207 347.322C257.375 347.6 257.459 347.967 257.459 348.424V351.67C257.459 351.889 257.473 352.115 257.5 352.35C257.531 352.584 257.574 352.777 257.629 352.93V353H256.943C256.9 352.859 256.867 352.684 256.844 352.473C256.824 352.262 256.814 352.059 256.814 351.863ZM256.955 349.303L256.967 349.854H255.842C255.533 349.854 255.264 349.887 255.033 349.953C254.803 350.02 254.609 350.115 254.453 350.24C254.301 350.365 254.186 350.516 254.107 350.691C254.029 350.863 253.99 351.057 253.99 351.271C253.99 351.553 254.035 351.783 254.125 351.963C254.219 352.143 254.352 352.275 254.523 352.361C254.695 352.443 254.904 352.484 255.15 352.484C255.467 352.484 255.748 352.42 255.994 352.291C256.24 352.162 256.441 351.992 256.598 351.781C256.754 351.57 256.855 351.346 256.902 351.107L257.078 351.5C257.039 351.68 256.967 351.863 256.861 352.051C256.756 352.238 256.619 352.414 256.451 352.578C256.283 352.738 256.084 352.869 255.854 352.971C255.623 353.072 255.361 353.123 255.068 353.123C254.725 353.123 254.422 353.057 254.16 352.924C253.898 352.791 253.695 352.592 253.551 352.326C253.41 352.057 253.34 351.725 253.34 351.33C253.34 351.037 253.391 350.768 253.492 350.521C253.594 350.275 253.744 350.061 253.943 349.877C254.143 349.693 254.393 349.553 254.693 349.455C254.994 349.354 255.344 349.303 255.742 349.303H256.955ZM264.691 348.014V353H264.04V346.66H264.655L264.691 348.014ZM264.544 349.438L264.257 349.268C264.269 348.893 264.329 348.541 264.439 348.213C264.548 347.881 264.695 347.59 264.878 347.34C265.066 347.09 265.286 346.895 265.54 346.754C265.794 346.613 266.077 346.543 266.39 346.543C266.652 346.543 266.888 346.586 267.099 346.672C267.31 346.758 267.488 346.895 267.632 347.082C267.777 347.266 267.888 347.506 267.966 347.803C268.044 348.096 268.083 348.451 268.083 348.869V353H267.439V348.863C267.439 348.43 267.39 348.09 267.292 347.844C267.195 347.594 267.054 347.418 266.87 347.316C266.691 347.215 266.474 347.164 266.22 347.164C265.95 347.164 265.712 347.236 265.505 347.381C265.298 347.525 265.124 347.713 264.984 347.943C264.843 348.174 264.736 348.422 264.661 348.688C264.587 348.949 264.548 349.199 264.544 349.438ZM276.627 352.514C276.87 352.514 277.096 352.469 277.307 352.379C277.522 352.289 277.698 352.137 277.834 351.922C277.971 351.707 278.049 351.412 278.069 351.037H278.69C278.67 351.486 278.565 351.867 278.373 352.18C278.182 352.492 277.934 352.729 277.629 352.889C277.329 353.045 276.995 353.123 276.627 353.123C276.245 353.123 275.911 353.061 275.625 352.936C275.344 352.811 275.108 352.625 274.916 352.379C274.725 352.129 274.58 351.822 274.483 351.459C274.385 351.096 274.336 350.672 274.336 350.188V349.473C274.336 348.988 274.385 348.564 274.483 348.201C274.58 347.838 274.725 347.533 274.916 347.287C275.108 347.041 275.346 346.855 275.631 346.73C275.916 346.605 276.248 346.543 276.627 346.543C277.014 346.543 277.36 346.625 277.664 346.789C277.969 346.949 278.211 347.195 278.391 347.527C278.575 347.859 278.674 348.283 278.69 348.799H278.069C278.053 348.404 277.979 348.088 277.846 347.85C277.717 347.607 277.547 347.432 277.336 347.322C277.125 347.209 276.889 347.152 276.627 347.152C276.327 347.152 276.071 347.205 275.86 347.311C275.653 347.412 275.485 347.562 275.356 347.762C275.227 347.957 275.133 348.199 275.075 348.488C275.016 348.773 274.987 349.102 274.987 349.473V350.188C274.987 350.559 275.016 350.889 275.075 351.178C275.133 351.467 275.227 351.711 275.356 351.91C275.485 352.109 275.655 352.26 275.866 352.361C276.077 352.463 276.33 352.514 276.627 352.514ZM286.953 353.123C286.601 353.123 286.279 353.066 285.986 352.953C285.693 352.836 285.439 352.66 285.224 352.426C285.013 352.188 284.849 351.889 284.732 351.529C284.615 351.166 284.556 350.738 284.556 350.246V349.514C284.556 348.99 284.617 348.541 284.738 348.166C284.863 347.787 285.033 347.479 285.248 347.24C285.463 347.002 285.707 346.826 285.98 346.713C286.254 346.6 286.541 346.543 286.841 346.543C287.189 346.543 287.496 346.6 287.761 346.713C288.027 346.826 288.248 346.998 288.423 347.229C288.603 347.455 288.738 347.744 288.828 348.096C288.921 348.447 288.968 348.861 288.968 349.338V349.883H284.949V349.273H288.318V349.109C288.31 348.695 288.252 348.344 288.142 348.055C288.037 347.762 287.877 347.539 287.662 347.387C287.447 347.23 287.175 347.152 286.847 347.152C286.605 347.152 286.382 347.197 286.179 347.287C285.98 347.373 285.806 347.51 285.658 347.697C285.513 347.885 285.402 348.129 285.324 348.43C285.246 348.73 285.207 349.092 285.207 349.514V350.246C285.207 350.637 285.248 350.975 285.33 351.26C285.416 351.541 285.537 351.775 285.693 351.963C285.853 352.146 286.043 352.285 286.261 352.379C286.48 352.469 286.722 352.514 286.988 352.514C287.312 352.514 287.597 352.457 287.843 352.344C288.089 352.23 288.308 352.061 288.5 351.834L288.845 352.268C288.732 352.424 288.589 352.566 288.418 352.695C288.246 352.824 288.041 352.928 287.802 353.006C287.564 353.084 287.281 353.123 286.953 353.123Z" fill="black"/>
</svg>
